<?xml version="1.0"?>
<svg viewBox="0 0 550 580" xmlns="http://www.w3.org/2000/svg" xmlns:svg="http://www.w3.org/2000/svg" version="1.1">
 <title>one-films</title>
 <g class="layer">
  <title>Layer 1</title>
  <path d="m135.9,41.51q-15.79,9.18 -25.36,20.06q-18.27,20.78 -22.93,49.4q-4.77,29.31 8.2,57.93q4.81,10.61 14.3,21.19q26.53,29.54 63.88,33.51q10.01,1.06 19.72,0.17q34.09,-3.15 59.57,-27.34c26.44,-25.09 35.97,-62.54 25.88,-97.74c-5.07,-17.67 -15.84,-33.39 -29.52,-45.66c-31.1,-27.87 -77.99,-32.31 -113.74,-11.52" fill="none" id="svg_1" stroke="#808080" stroke-width="2" transform="matrix(1 0 0 1 0 0)"/>
  <path d="m100.8,431.44q-16.59,-20.94 -20.72,-48.03q-0.81,-5.31 -0.77,-21.16q0.17,-61.72 -0.16,-113.5q-0.31,-49.68 -0.11,-82.75c0.09,-15.72 -0.62,-33.7 -0.07,-47.7q1,-25.64 13.47,-46.19q10.29,-16.97 25.2,-28.92q8.7,-6.98 17.13,-11.21q33.31,-16.76 70.37,-9.63q15.68,3.02 27.6,9.86c7.13,4.09 14.77,8.72 21.01,14.02c18.12,15.39 31.44,39 34.18,63.55q0.92,8.27 0.87,19.97q-0.43,111.7 -0.45,228.23q0,6.28 -0.12,13.25q-0.51,29.55 -16.94,53.68q-18.43,27.06 -47.96,38.46q-25.81,9.97 -50.36,7.36q-15.05,-1.59 -31.74,-8.51q-23.87,-9.89 -40.43,-30.78zm34.1,-390.93q-15.79,9.18 -25.36,20.06q-18.27,20.78 -22.93,49.4q-4.77,29.31 8.2,57.93q4.81,10.61 14.3,21.19q26.53,29.54 63.88,33.51q10.01,1.06 19.72,0.17q34.09,-3.15 59.57,-27.34c26.44,-25.09 35.97,-62.54 25.88,-97.74c-5.07,-17.67 -15.84,-33.39 -29.52,-45.66c-31.1,-27.87 -77.99,-32.31 -113.74,-11.52z" fill="#000000" id="svg_2" transform="matrix(1 0 0 1 0 0)"/>
  <path d="m134.9,39.51c35.75,-20.79 82.64,-16.35 113.74,11.52c13.68,12.27 24.45,27.99 29.52,45.66c10.09,35.2 0.56,72.65 -25.88,97.74q-25.48,24.19 -59.57,27.34q-9.71,0.89 -19.72,-0.17q-37.35,-3.97 -63.88,-33.51q-9.49,-10.58 -14.3,-21.19q-12.97,-28.62 -8.2,-57.93q4.66,-28.62 22.93,-49.4q9.57,-10.88 25.36,-20.06z" fill="#ffffff" id="svg_3" transform="matrix(1 0 0 1 0 0)"/>
  <path d="m369.88,111.56q-1.82,-2.28 -1.87,0.64c-0.55,35 0.13,70.2 0.14,104.73q0,1.68 -1.69,1.7q-30.77,0.31 -50.48,-0.29q-1.41,-0.04 -2.8,-0.42a2.26,2.26 0 0 1 -1.64,-1.89c-0.69,-5.64 -0.1,-11.31 -0.14,-16.94c-0.36,-57.7 -0.92,-115 -0.22,-172.34q0.02,-2.05 0.26,-3.96a1.95,1.94 2.8 0 1 1.87,-1.69q24.96,-0.62 49.91,-0.07c5.87,0.13 9.56,7.22 12.5,11.52q23.25,33.97 45.79,67.5q8.21,12.21 19.94,28.56q1.35,1.89 1.4,-0.44q0.16,-8.01 0.14,-15.23q-0.1,-40.87 0.06,-84.12q0.01,-3.4 0.63,-6.26a2.05,2.05 0 0 1 1.97,-1.62q26.67,-0.53 52.96,0a1.45,1.45 0 0 1 1.42,1.39q0.08,1.79 0.08,3.45q-0.06,94.13 0.19,187.49q0.01,2.35 -0.3,4.71a0.94,0.93 3.2 0 1 -0.92,0.82q-26.98,0.45 -54.14,-0.06a4.22,4.22 0 0 1 -3.4,-1.83q-27.4,-40.18 -50.67,-75.01q-3.67,-5.5 -7.95,-12.39c-3.9,-6.26 -8.43,-12.17 -13.04,-17.95z" fill="#000000" id="svg_4" transform="matrix(1 0 0 1 0 0)"/>
  <path d="m381.31,418.42q0.44,0.1 0.87,0.1q59.51,0.11 119.44,0.07a1.22,1.22 0 0 1 1.22,1.22l-0.03,49.17a1.18,1.18 0 0 1 -1.15,1.18q-7.98,0.21 -17.16,0.2q-84.19,-0.07 -171.88,-0.28a1.72,1.71 0 0 1 -1.72,-1.71l0.07,-223.61q0,-1.89 1.77,-2.13q4.16,-0.57 7.39,-0.58q92.13,-0.44 178.09,-0.28a1,0.99 89.7 0 1 0.99,0.99q0.11,23.29 0.05,44.3q-0.01,1.24 -0.31,2.43q-0.13,0.51 -0.66,0.56q-2.59,0.21 -4.79,0.21q-54.11,-0.02 -112,-0.13a0.65,0.65 0 0 0 -0.65,0.65l-0.07,34.71q0,0.95 0.95,0.94q53.82,-0.38 101.88,-0.01q2.39,0.02 4.81,0.35a2.02,2.02 0 0 1 1.71,1.59q0.63,2.99 0.65,6.39q0.13,16.79 0.03,33.5q-0.01,1.95 -0.25,3.28a1.49,1.49 0 0 1 -1.47,1.23l-107.57,-0.06a0.62,0.62 0 0 0 -0.62,0.63l0.04,44.64a0.46,0.45 -84.7 0 0 0.37,0.45z" fill="#000000" id="svg_5"/>
  <path d="m446.23,500.02c-8.43,6.14 9.42,13.11 12.9,14.66c6.5,2.91 14.5,8.62 10.64,16.76c-4.05,8.54 -18.63,8.55 -26.63,7q-1.31,-0.26 -2.54,-0.77q-3.36,-1.41 -3.15,-2.86q0.28,-2.02 2.25,-1.51c6.76,1.74 13.98,2.44 20,-0.02c3.97,-1.62 5.7,-6.17 2.44,-9.53q-2.58,-2.66 -6.31,-4.32c-5.58,-2.49 -16.14,-6.56 -18.14,-12.64q-1.76,-5.34 2.23,-9.06c6.48,-6.03 20.03,-4.88 28.3,-2.88q1.57,0.38 0.83,1.82l-0.78,1.52a1.69,1.69 0 0 1 -1.82,0.88q-6.27,-1.18 -14.33,-0.95q-3.43,0.1 -5.89,1.9z" fill="#000000" id="svg_6"/>
  <path d="m120.59,514.08l19.14,0.12q1.53,0.01 1.48,1.53l-0.02,0.54q-0.05,1.66 -1.72,1.77q-9.03,0.59 -18.98,0.31a0.73,0.72 -1.1 0 0 -0.75,0.77q0.35,5.97 -0.13,15.9c-0.14,2.99 -1.43,3.13 -3.85,2.58a3.28,3.28 0 0 1 -2.56,-3.12q-0.37,-17.36 -0.17,-34.39c0.02,-1.77 0.31,-5.48 2.7,-5.65q11.38,-0.79 24.76,-0.01a2.16,2.08 63.5 0 1 1.15,0.41q1.29,0.94 1.25,2.08q-0.05,1.51 -1.56,1.52l-20.31,0.21a1.17,1.17 0 0 0 -1.15,1.17l-0.04,13.5a0.76,0.76 0 0 0 0.76,0.76z" fill="#000000" id="svg_7"/>
  <path d="m379.56,503.9a0.45,0.44 -41.1 0 0 -0.79,-0.05c-1.43,2.28 -2.58,4.62 -4.18,6.8q-6.03,8.2 -11.76,16.29a1.81,1.7 88.4 0 1 -0.33,0.37q-1.96,1.66 -3.57,-0.51q-6.32,-8.58 -12.58,-16.58c-1.5,-1.92 -2.21,-4.01 -3.48,-5.99q-0.09,-0.14 -0.25,-0.12l-0.28,0.02a0.45,0.45 0 0 0 -0.4,0.55c0.51,2.28 1.08,4.52 1.08,6.86q-0.03,13.62 0.02,25.69q0,1.18 -1.17,1.16l-4.58,-0.04q-1.1,-0.01 -1.12,-1.11q-0.36,-20.46 0.04,-40.61q0.04,-2.27 2.35,-2.46c1.37,-0.11 3.25,-0.35 4.19,0.85q7.68,9.77 15.15,19.83q1.74,2.34 2.9,5.25a0.62,0.62 0 0 0 1.16,-0.01q1.17,-3.01 2.76,-5.23q6.64,-9.26 14.44,-19.79a2.43,2.42 18.6 0 1 1.99,-0.98l4.09,0.07a0.83,0.83 0 0 1 0.82,0.83l-0.05,41.93q-0.01,1.49 -1.49,1.5l-4.48,0.01q-1.16,0.01 -1.16,-1.16q0,-12.34 -0.03,-24.69q-0.01,-3.86 0.82,-7.64q0.11,-0.54 -0.11,-1.04z" fill="#000000" id="svg_8"/>
  <path d="m262.63,533.58a0.45,0.45 0 0 0 0.45,0.44l23.39,0.07a1.62,1.62 0 0 1 1.62,1.6l0.01,0.77q0.01,1.64 -1.63,1.74q-14.27,0.88 -29.25,-0.12a1.39,1.38 -89.1 0 1 -1.29,-1.34q-0.63,-20.13 0.08,-39.87q0.09,-2.44 2.53,-2.48l1.61,-0.02q2.2,-0.04 2.22,2.16l0.26,37.05z" fill="#000000" id="svg_9"/>
  <path d="m196.57,537.81a1.51,1.51 0 0 1 -1.5,-1.53l0.25,-23.89a16.88,2.76 -89.4 0 1 2.94,-16.85l1.26,0.02a16.88,2.76 -89.4 0 1 2.58,16.91l-0.25,23.88a1.51,1.51 0 0 1 -1.52,1.5l-3.76,-0.04z" fill="#000000" id="svg_10"/>
 </g>
</svg>